<?xml version="1.0" encoding="UTF-8"?>
<svg version="1.1" xmlns="http://www.w3.org/2000/svg" width="2500" height="1208">
<path d="M0 0 C-0.5576001 0.75337646 -0.5576001 0.75337646 -1.12646484 1.52197266 C-7.97196729 10.77658566 -14.78600968 20.04847919 -21.45703125 29.4296875 C-29.44903085 40.66596417 -37.57410514 51.80410722 -45.76855469 62.89331055 C-49.7135965 68.23769475 -53.61938631 73.60868512 -57.5 79 C-62.54007819 86.00215242 -67.64213385 92.95613256 -72.76953125 99.89453125 C-76.71415511 105.23857821 -80.61958115 110.60918549 -84.5 116 C-92.4292041 127.01178003 -100.49594309 137.92152549 -108.57421875 148.82421875 C-114.63491684 157.01351982 -120.61686656 165.24516987 -126.46362305 173.58862305 C-130.7883736 179.74244372 -135.24252819 185.79575616 -139.71655273 191.84155273 C-143.69840498 197.22496442 -147.64632314 202.63112861 -151.5625 208.0625 C-152.09407715 208.79960205 -152.6256543 209.5367041 -153.17333984 210.29614258 C-155.32983293 213.28857961 -157.48437867 216.28240647 -159.63671875 219.27783203 C-165.90457423 228.00034944 -172.22573208 236.67183766 -178.69384766 245.24707031 C-183.12096428 251.12941688 -187.39653061 257.11176392 -191.65771484 263.11474609 C-199.2550053 273.78522206 -206.98409924 284.35893496 -214.76855469 294.89331055 C-218.7135965 300.23769475 -222.61938631 305.60868512 -226.5 311 C-230.96020953 317.19654414 -235.46259635 323.35976023 -240 329.5 C-246.18276421 337.86923698 -252.2900892 346.29057916 -258.36914062 354.73535156 C-267.48881684 367.39914146 -276.61248877 380.0601394 -285.88110352 392.61547852 C-291.12402491 399.71776277 -296.3426203 406.83530427 -301.5 414 C-306.65369681 421.15957941 -311.86803544 428.27243786 -317.10791016 435.36914062 C-321.43268423 441.22654538 -325.72875209 447.10340997 -330 453 C-331.20763273 454.66717438 -332.41600083 456.33381627 -333.625 458 C-334.26566406 458.88945312 -334.90632813 459.77890625 -335.56640625 460.6953125 C-337.54690938 463.4155636 -339.59633596 466.07863961 -341.65234375 468.7421875 C-342.2954248 469.58652344 -342.93850586 470.43085938 -343.60107422 471.30078125 C-344.89395866 472.99759151 -346.19876212 474.68539534 -347.51611328 476.36328125 C-348.11020996 477.14832031 -348.70430664 477.93335938 -349.31640625 478.7421875 C-349.85724854 479.4419873 -350.39809082 480.14178711 -350.95532227 480.86279297 C-352.331374 483.67792661 -351.96031558 485.06345603 -351 488 C-349.05274526 490.9432584 -349.05274526 490.9432584 -346.5625 493.9375 C-345.63983587 495.09860171 -344.71932465 496.26141692 -343.80078125 497.42578125 C-343.3310791 498.01955566 -342.86137695 498.61333008 -342.37744141 499.22509766 C-340.25039326 501.96590589 -338.24802961 504.78944582 -336.25 507.625 C-332.29506631 513.21637631 -328.25970005 518.7434713 -324.1875 524.25 C-318.97536333 531.30100625 -313.81461984 538.38647194 -308.69091797 545.50195312 C-305.25591377 550.26958353 -301.79531201 555.0172009 -298.3125 559.75 C-294.88245633 564.41360742 -291.48350036 569.09709799 -288.125 573.8125 C-279.19785673 586.34610235 -270.166653 598.79985103 -261.02050781 611.17456055 C-257.23608162 616.30189871 -253.50814361 621.46471186 -249.82080078 626.66210938 C-246.3319156 631.56601754 -242.7646181 636.4101977 -239.1875 641.25 C-231.84456444 651.18678304 -224.61259354 661.20112535 -217.39550781 671.22949219 C-210.65914745 680.58668577 -203.87283345 689.90342328 -197.01977539 699.17553711 C-193.23560736 704.30255958 -189.50790801 709.46504394 -185.82080078 714.66210938 C-182.3319156 719.56601754 -178.7646181 724.4101977 -175.1875 729.25 C-168.9341189 737.71235006 -162.75615661 746.22647323 -156.60888672 754.76611328 C-153.90987882 758.51359769 -151.20468506 762.25661201 -148.5 766 C-145.25868547 770.48610379 -142.01858046 774.97304831 -138.78515625 779.46484375 C-132.65183905 787.98003171 -126.46739321 796.45450184 -120.23071289 804.89428711 C-115.74244669 810.97462225 -111.31057572 817.09378338 -106.89672852 823.22827148 C-102.95132795 828.7037774 -98.95290118 834.13818612 -94.9375 839.5625 C-90.04490066 846.17557384 -85.25716451 852.85172085 -80.53662109 859.58837891 C-76.21528993 865.73703213 -71.76542537 871.78582618 -67.29443359 877.82617188 C-61.58971763 885.53754809 -55.97777334 893.31417202 -50.37207031 901.09765625 C-48.58860786 903.57038569 -46.79544386 906.03595989 -45 908.5 C-42.69707657 911.66049743 -40.40254762 914.82679151 -38.1171875 918 C-32.452309 925.86402052 -26.75957747 933.70499281 -21 941.5 C-13.72046306 951.35399505 -6.55169555 961.28574502 0.60449219 971.22949219 C7.34085255 980.58668577 14.12716655 989.90342328 20.98022461 999.17553711 C24.76439264 1004.30255958 28.49209199 1009.46504394 32.17919922 1014.66210938 C35.6680844 1019.56601754 39.2353819 1024.4101977 42.8125 1029.25 C50.18288346 1039.22392675 57.44270876 1049.27518804 64.68505859 1059.34228516 C70.66490301 1067.65229564 76.67194849 1075.92994084 82.83984375 1084.1015625 C86.05420677 1088.41450529 89.16374786 1092.80058855 92.28125 1097.18359375 C99.75803498 1107.69232499 107.33717912 1118.1262755 115 1128.5 C123.82012554 1140.44045297 132.5102796 1152.47307419 141.10229492 1164.57861328 C143.59513824 1168.07618635 146.13288523 1171.53740878 148.6953125 1174.984375 C149.65449585 1176.27613647 149.65449585 1176.27613647 150.63305664 1177.59399414 C151.89952595 1179.29634812 153.16943838 1180.99614709 154.44311523 1182.69311523 C155.30851929 1183.85629272 155.30851929 1183.85629272 156.19140625 1185.04296875 C156.70904541 1185.73414795 157.22668457 1186.42532715 157.76000977 1187.13745117 C159 1189 159 1189 160 1192 C155.32729404 1191.42075112 151.00016184 1190.52659119 146.50390625 1189.13671875 C144.61466431 1188.55784912 144.61466431 1188.55784912 142.68725586 1187.96728516 C142.01822235 1187.75968567 141.34918884 1187.55208618 140.65988159 1187.3381958 C137.74803675 1186.43481932 134.83260974 1185.543256 131.91743469 1184.6506958 C130.35791682 1184.1730573 128.79858386 1183.6948147 127.23942566 1183.21600342 C119.14976889 1180.73290524 111.04514591 1178.30046307 102.93844604 1175.87368774 C100.41330742 1175.11775766 97.88838498 1174.36110959 95.36352539 1173.60424805 C91.94668043 1172.58002099 88.52976654 1171.55602449 85.11279297 1170.53222656 C77.57227603 1168.27271135 70.03264197 1166.01025344 62.49295044 1163.74798584 C58.32867069 1162.49853369 54.16433235 1161.24927684 50 1160 C48.33333305 1159.50000093 46.66666639 1159.00000093 45 1158.5 C44.175 1158.2525 43.35 1158.005 42.5 1157.75 C34.99999988 1155.49999996 34.99999988 1155.49999996 32.5005188 1154.75015259 C30.83212504 1154.2496365 29.16372904 1153.74912788 27.49533081 1153.24862671 C23.35507029 1152.00658388 19.21484753 1150.76441549 15.07470703 1149.52197266 C7.25985428 1147.17690787 -0.55539419 1144.83318395 -8.37188721 1142.49359131 C-12.06658687 1141.38763341 -15.76108444 1140.2810013 -19.45556641 1139.17431641 C-21.21783515 1138.64663506 -22.98020299 1138.11928457 -24.74267578 1137.59228516 C-27.18547257 1136.86183872 -29.62792637 1136.1302557 -32.0703125 1135.3984375 C-32.78720245 1135.18440277 -33.50409241 1134.97036804 -34.2427063 1134.74984741 C-36.1639074 1134.17353021 -38.0820642 1133.58709236 -40 1133 C-41.09078857 1132.69489502 -42.18157715 1132.38979004 -43.30541992 1132.07543945 C-46.27415237 1130.89058248 -47.26317453 1129.99741155 -49.04296875 1127.39453125 C-49.55359863 1126.66596924 -50.06422852 1125.93740723 -50.59033203 1125.18676758 C-51.11739746 1124.40325928 -51.64446289 1123.61975098 -52.1875 1122.8125 C-53.33400329 1121.16622626 -54.48114851 1119.5203994 -55.62890625 1117.875 C-56.19625488 1117.05128906 -56.76360352 1116.22757813 -57.34814453 1115.37890625 C-59.71081357 1111.97632761 -62.16189519 1108.64270686 -64.625 1105.3125 C-65.52632812 1104.08614798 -66.427371 1102.85958627 -67.328125 1101.6328125 C-68.21866291 1100.42181095 -69.10928764 1099.21087324 -70 1098 C-79.14951362 1085.56175199 -88.20138547 1073.05496241 -97.22265625 1060.5234375 C-103.35391793 1052.01256028 -109.53539804 1043.54172091 -115.76928711 1035.10571289 C-120.25816363 1029.02455095 -124.68990813 1022.90404491 -129.10546875 1016.76953125 C-133.03392105 1011.31916038 -137.00714521 1005.90332922 -141 1000.5 C-148.27959514 990.6460488 -155.44830513 980.71425404 -162.60449219 970.77050781 C-169.9603519 960.55279386 -177.38171769 950.38673456 -184.859375 940.2578125 C-189.5744051 933.86997656 -194.23868604 927.44624107 -198.87890625 921.00390625 C-205.12584363 912.33447191 -211.41743354 903.70120841 -217.76806641 895.10742188 C-222.25729139 889.02564712 -226.68949897 882.90461336 -231.10546875 876.76953125 C-235.03392105 871.31916038 -239.00714521 865.90332922 -243 860.5 C-250.27959514 850.6460488 -257.44830513 840.71425404 -264.60449219 830.77050781 C-270.6923875 822.31406964 -276.80868741 813.88111091 -283 805.5 C-290.27942622 795.64592179 -297.44830324 785.71425666 -304.60449219 775.77050781 C-311.27234294 766.50847805 -317.98677039 757.28415107 -324.76928711 748.10571289 C-328.71407059 742.7616436 -332.61960897 737.39097394 -336.5 732 C-341.65367648 724.84040626 -346.86803568 717.72756182 -352.10791016 710.63085938 C-356.43269677 704.77343765 -360.72704056 698.89536346 -365 693 C-366.22903764 691.31240602 -367.45821016 689.62491028 -368.6875 687.9375 C-371.1003796 684.62155435 -373.50569586 681.30034249 -375.90234375 677.97265625 C-381.5608446 670.11784984 -387.24708047 662.28599633 -393 654.5 C-399.18271476 646.13072581 -405.29008866 637.70942161 -411.36914062 629.26464844 C-414.7251791 624.60437705 -418.08692005 619.94820803 -421.45263672 615.29492188 C-423.81885756 612.02343402 -426.1816668 608.7499837 -428.5234375 605.4609375 C-429.23757813 604.46320312 -429.95171875 603.46546875 -430.6875 602.4375 C-431.28949219 601.59058594 -431.89148438 600.74367188 -432.51171875 599.87109375 C-433.87559143 597.88653553 -433.87559143 597.88653553 -436 597 C-436.23460937 597.52464844 -436.46921875 598.04929687 -436.7109375 598.58984375 C-438.41502205 601.77596547 -440.50767769 604.64412541 -442.625 607.5625 C-443.07085449 608.18165283 -443.51670898 608.80080566 -443.97607422 609.4387207 C-445.31413451 611.29485539 -446.65634737 613.14791083 -448 615 C-448.7115625 615.98226562 -449.423125 616.96453125 -450.15625 617.9765625 C-452.10048549 620.6537439 -454.04970662 623.32722952 -456 626 C-457.33364429 627.83310715 -458.66697509 629.6664424 -460 631.5 C-461.94048797 634.16864013 -463.88128183 636.8370485 -465.82421875 639.50390625 C-468.85946065 643.67179608 -471.88909519 647.84352274 -474.90234375 652.02734375 C-480.5608446 659.88215016 -486.24708047 667.71400367 -492 675.5 C-498.19020544 683.879414 -504.30474403 692.31107494 -510.39111328 700.76611328 C-513.09012122 704.51359775 -515.79534422 708.25659079 -518.5 712 C-521.77529972 716.533816 -525.04969232 721.06827545 -528.3203125 725.60546875 C-536.26527129 736.62393069 -544.26989707 747.59620014 -552.33984375 758.5234375 C-560.29617018 769.29961549 -568.17558385 780.12772851 -576 791 C-583.20063208 801.00550398 -590.44250786 810.97688478 -597.76708984 820.89208984 C-603.90919634 829.21502749 -609.95790683 837.60432215 -616 846 C-623.20122344 856.0063257 -630.44255899 865.97939506 -637.76928711 875.89428711 C-641.71407041 881.23835616 -645.61962408 886.60901545 -649.5 892 C-654.52997817 898.98812052 -659.62147559 905.9284134 -664.73876953 912.8527832 C-670.8913468 921.18789175 -676.95247004 929.58849088 -683 938 C-689.565171 937.3253207 -695.64701276 935.4472824 -701.9453125 933.52734375 C-703.12429611 933.17238831 -704.30327972 932.81743286 -705.51799011 932.45172119 C-708.72261359 931.4858516 -711.92582282 930.51553307 -715.1284523 929.54308701 C-718.48066222 928.5263045 -721.83452444 927.51500191 -725.18823242 926.50317383 C-730.02407356 925.04360525 -734.85929963 923.58202732 -739.69379711 922.11801434 C-748.20264724 919.54133452 -756.71566527 916.97881336 -765.23046875 914.421875 C-768.79018546 913.35177492 -772.34980403 912.28134926 -775.90936279 911.21072388 C-778.15256901 910.53625734 -780.39593294 909.86231508 -782.63946533 909.18893433 C-794.48758891 905.63087923 -806.29900581 902.01933642 -818 898 C-816.78242601 894.6757615 -815.4710231 892.02517672 -813.27734375 889.25 C-812.47695679 888.22447021 -812.47695679 888.22447021 -811.66040039 887.17822266 C-811.09184326 886.45940918 -810.52328613 885.7405957 -809.9375 885 C-805.22573581 878.94597964 -800.74473451 872.82853622 -796.42578125 866.48828125 C-793.46792523 862.1894969 -790.35463995 858.0058292 -787.25 853.8125 C-782.61083235 847.54556518 -777.99720264 841.26253903 -773.4375 834.9375 C-772.90471436 834.19854492 -772.37192871 833.45958984 -771.82299805 832.69824219 C-770.21460015 830.46602072 -768.60711907 828.23314232 -767 826 C-759.79877656 815.9936743 -752.55744101 806.02060494 -745.23071289 796.10571289 C-741.28592959 790.76164384 -737.38037592 785.39098455 -733.5 780 C-729.03979047 773.80345586 -724.53740365 767.64023977 -720 761.5 C-712.70896188 751.63055912 -705.52335774 741.68689256 -698.36328125 731.72216797 C-692.62622049 723.73831887 -686.8657531 715.78081133 -680.9375 707.9375 C-676.30428093 701.80579073 -671.8371095 695.57277844 -667.42504883 689.28051758 C-662.39014662 682.10736021 -657.20857423 675.04759635 -652 668 C-649.70748123 664.89646158 -647.41577484 661.79232589 -645.125 658.6875 C-644.53348145 657.88586426 -643.94196289 657.08422852 -643.33251953 656.25830078 C-639.35624906 650.86170173 -635.41661747 645.440012 -631.5 640 C-625.27909399 631.35943104 -618.96657897 622.7881796 -612.64160156 614.22363281 C-606.33847471 605.68572689 -600.06834055 597.12766772 -593.91137695 588.48364258 C-586.11104216 577.53438018 -578.25941332 566.62885068 -570.16015625 555.8984375 C-566.94860396 551.58926607 -563.8417095 547.20703657 -560.7265625 542.828125 C-553.05559416 532.04699951 -545.294674 521.34007701 -537.32446289 510.77807617 C-532.42614656 504.27174731 -527.70566393 497.64664836 -523 491 C-521.33531421 488.66524468 -519.66778401 486.33254449 -518 484 C-520.78941552 478.88716544 -523.88934952 474.29845784 -527.4375 469.6875 C-531.82853608 463.90843045 -536.14122183 458.08277306 -540.375 452.1875 C-544.8752519 445.92713157 -549.4169954 439.7000509 -554 433.5 C-559.08214883 426.62303764 -564.11002888 419.70966791 -569.10546875 412.76953125 C-573.03392105 407.31916038 -577.00714521 401.90332922 -581 396.5 C-588.27959514 386.6460488 -595.44830513 376.71425404 -602.60449219 366.77050781 C-610.99083369 355.12139515 -619.46850366 343.54316631 -628 332 C-637.62018486 318.98383151 -647.15017155 305.90758268 -656.60449219 292.77050781 C-665.58670236 280.29369915 -674.67890567 267.90165725 -683.81884766 255.54003906 C-689.8484615 247.38336968 -695.87776927 239.22611154 -701.8125 231 C-702.22725586 230.43047607 -702.64201172 229.86095215 -703.06933594 229.27416992 C-704.8120441 226.84372778 -706.04644854 224.86065437 -707 222 C-691.4077226 216.69077934 -675.70997718 211.80631463 -659.9375 207.0625 C-655.01375096 205.5787137 -650.09063841 204.09283201 -645.16796875 202.60546875 C-643.29934677 202.04107086 -643.29934677 202.04107086 -641.39297485 201.465271 C-632.55593841 198.78987385 -623.73737645 196.05870161 -614.92578125 193.30078125 C-612.5189929 192.54994845 -610.1121738 191.79921421 -607.70532227 191.04858398 C-604.24424142 189.96889928 -600.78439998 188.88588871 -597.32785034 187.79177856 C-594.15356272 186.78720116 -590.9757022 185.79478821 -587.796875 184.8046875 C-586.85785843 184.50351517 -585.91884186 184.20234283 -584.95137024 183.89204407 C-584.08924423 183.62586777 -583.22711823 183.35969147 -582.33886719 183.08544922 C-581.59288269 182.85026581 -580.84689819 182.6150824 -580.07830811 182.37277222 C-577.66958327 181.94073536 -576.27669757 182.12134575 -574 183 C-572.30529651 184.86417384 -570.84671015 186.66012925 -569.375 188.6875 C-568.93969971 189.27055908 -568.50439941 189.85361816 -568.0559082 190.4543457 C-566.69026548 192.29330638 -565.34236229 194.1439912 -564 196 C-563.59475098 196.55945313 -563.18950195 197.11890625 -562.77197266 197.6953125 C-560.7282904 200.52644558 -558.70184979 203.36944735 -556.68359375 206.21875 C-548.66350671 217.53841033 -540.47588648 228.73645567 -532.23144531 239.89331055 C-527.74230797 245.97478595 -523.31032964 252.09562476 -518.89453125 258.23046875 C-514.96607895 263.68083962 -510.99285479 269.09667078 -507 274.5 C-499.72040486 284.3539512 -492.55169487 294.28574596 -485.39550781 304.22949219 C-479.30761222 312.68593075 -473.19128778 321.11887042 -467 329.5 C-456.85744476 343.23063712 -446.90283238 357.09579742 -437 371 C-430.72997505 363.57895598 -424.98050612 355.90262947 -419.390625 347.96582031 C-416.86682505 344.39811715 -414.30858397 340.85530231 -411.75 337.3125 C-411.20504883 336.55767334 -410.66009766 335.80284668 -410.09863281 335.02514648 C-405.51591779 328.68954964 -400.878413 322.39523504 -396.23144531 316.10668945 C-392.2864035 310.76230525 -388.38061369 305.39131488 -384.5 300 C-379.46146547 292.99999218 -374.36158905 286.04767669 -369.23486328 279.11206055 C-365.24349601 273.70581398 -361.29774239 268.26869409 -357.375 262.8125 C-352.76226187 256.39805272 -348.06253914 250.0570907 -343.30371094 243.75048828 C-340.18275814 239.60466814 -337.12603451 235.42082856 -334.125 231.1875 C-327.87266189 222.36834588 -321.42690728 213.69228426 -315 205 C-305.92352849 192.72079874 -296.9193913 180.3937738 -288 168 C-279.66377511 156.41655422 -271.26051047 144.88644429 -262.77929688 133.40869141 C-258.05487408 127.01308831 -253.34012853 120.6103359 -248.62548828 114.20751953 C-247.57719221 112.78386482 -246.52870401 111.36035157 -245.47998047 109.93701172 C-240.66994154 103.40667652 -235.88592728 96.86118804 -231.1875 90.25 C-227.02703735 84.4023569 -222.80742592 78.59909914 -218.5625 72.8125 C-217.95881592 71.98588867 -217.35513184 71.15927734 -216.7331543 70.30761719 C-216.16250244 69.53192383 -215.59185059 68.75623047 -215.00390625 67.95703125 C-214.24315796 66.92026245 -214.24315796 66.92026245 -213.46704102 65.86254883 C-210.84109331 62.52865716 -208.93719717 60.71573049 -204.80517578 59.51708984 C-203.95689713 59.26572266 -203.10861847 59.01435547 -202.2346344 58.75537109 C-201.31415817 58.49320801 -200.39368195 58.23104492 -199.4453125 57.9609375 C-198.00532143 57.53796387 -198.00532143 57.53796387 -196.53623962 57.10644531 C-193.40159649 56.18738566 -190.26332155 55.28141029 -187.125 54.375 C-183.87027097 53.42316461 -180.61660396 52.46775914 -177.36299133 51.51211548 C-175.20908203 50.87966903 -173.05485646 50.24829872 -170.90031433 49.61801147 C-162.92807979 47.28385576 -154.98675713 44.86767553 -147.0625 42.375 C-135.81697517 38.85098456 -124.54006437 35.44063679 -113.25 32.0625 C-112.38827179 31.804617 -111.52654358 31.54673401 -110.63870239 31.28103638 C-108.90444726 30.76206007 -107.17018926 30.24309333 -105.43592834 29.72413635 C-104.58566574 29.46970261 -103.73540314 29.21526886 -102.859375 28.953125 C-102.01237534 28.69969833 -101.16537567 28.44627167 -100.29270935 28.18516541 C-92.69048786 25.90954483 -85.09418615 23.61480761 -77.5 21.3125 C-76.24646729 20.93383789 -74.99293457 20.55517578 -73.70141602 20.16503906 C-65.61371762 17.71929932 -57.53636773 15.24151669 -49.46420288 12.74494934 C-44.97583267 11.35742039 -40.48519368 9.97729562 -35.99405479 8.59875774 C-32.77652075 7.61064167 -29.56028815 6.61864441 -26.34667969 5.61782837 C-22.72738919 4.49246845 -19.10443372 3.37973012 -15.48046875 2.26953125 C-14.38095383 1.92426392 -13.2814389 1.57899658 -12.14860535 1.2232666 C-10.62521294 0.76047302 -10.62521294 0.76047302 -9.07104492 0.28833008 C-7.74141975 -0.12276253 -7.74141975 -0.12276253 -6.38493347 -0.54216003 C-3.8640671 -1.02609528 -2.40294806 -0.82882439 0 0 Z " fill="#ED2638" transform="translate(1130,8)"/>
<path d="M0 0 C74.72600887 -1.09529695 152.41452726 10.91587102 212.23535156 59.06201172 C212.81945801 59.5304248 213.40356445 59.99883789 214.00537109 60.48144531 C229.07111482 72.68762517 242.78214849 86.40779186 254.23535156 102.06201172 C255.08139349 103.18985018 255.92774893 104.31745353 256.77441406 105.44482422 C309.76037728 176.86291008 318.13245366 275.1443673 305.90380859 360.69311523 C295.89467321 426.66735739 266.89622171 491.30903129 213.23535156 533.06201172 C211.79675781 534.22603516 211.79675781 534.22603516 210.32910156 535.41357422 C168.47853366 568.70379869 115.86296701 585.30211008 63.23535156 591.06201172 C62.38827637 591.16497559 61.54120117 591.26793945 60.66845703 591.37402344 C-21.16265366 601.12719479 -116.61325972 588.96926997 -183.03417969 537.05029297 C-184.28047465 536.05771151 -185.52402223 535.06166951 -186.76464844 534.06201172 C-187.35938965 533.58296387 -187.95413086 533.10391602 -188.56689453 532.61035156 C-201.87659406 521.77261056 -214.36082908 509.73936556 -224.76464844 496.06201172 C-225.17602051 495.53236816 -225.58739258 495.00272461 -226.01123047 494.45703125 C-281.61969262 422.67829487 -291.30352774 324.675454 -280.49902344 237.10424805 C-273.62971564 185.09624785 -256.06635539 131.94485622 -220.76464844 92.06201172 C-220.10980469 91.29888672 -219.45496094 90.53576172 -218.78027344 89.74951172 C-207.59839365 76.97022053 -195.5984261 64.94570336 -181.76464844 55.06201172 C-181.03246094 54.53430176 -180.30027344 54.0065918 -179.54589844 53.46289062 C-132.65022275 20.016941 -78.31405382 6.36257598 -21.76464844 1.06201172 C-20.86810547 0.97580566 -19.9715625 0.88959961 -19.04785156 0.80078125 C-12.69488334 0.22235598 -6.37391246 0.10499181 0 0 Z M-31.76464844 85.06201172 C-32.6312207 85.23361816 -33.49779297 85.40522461 -34.390625 85.58203125 C-72.66170656 93.34305703 -107.9551722 111.39446724 -131.76464844 143.06201172 C-132.35503906 143.83673828 -132.94542969 144.61146484 -133.55371094 145.40966797 C-139.00462889 152.86423385 -143.45036983 160.91365904 -147.76464844 169.06201172 C-148.11172852 169.71524414 -148.45880859 170.36847656 -148.81640625 171.04150391 C-168.64757804 209.0116382 -172.98609402 253.32295268 -173.01464844 295.49951172 C-173.01565552 296.53503174 -173.0166626 297.57055176 -173.0177002 298.63745117 C-173.00613583 316.29556329 -172.19436277 333.55654831 -169.76464844 351.06201172 C-169.62542969 352.09036133 -169.48621094 353.11871094 -169.34277344 354.17822266 C-163.60077796 395.02348219 -148.65623838 434.15311227 -119.76464844 464.06201172 C-118.45367188 465.46773437 -118.45367188 465.46773437 -117.11621094 466.90185547 C-87.64863955 497.70886192 -42.38134623 510.89410544 -0.77001953 512.18603516 C34.22458623 512.91858578 68.87116029 510.63661441 101.23535156 496.06201172 C102.2765918 495.59408203 102.2765918 495.59408203 103.33886719 495.11669922 C142.90694879 477.00740047 168.77754078 443.67466853 183.92285156 403.69873047 C196.21737033 369.6550789 199.46542198 333.06301321 199.42285156 297.12451172 C199.42224731 296.17802765 199.42164307 295.23154358 199.42102051 294.25637817 C199.39540748 279.43939588 199.06810572 264.78380869 197.23535156 250.06201172 C197.10644531 249.01916016 196.97753906 247.97630859 196.84472656 246.90185547 C191.60508967 206.19763921 179.20970887 166.70909234 152.23535156 135.06201172 C151.19121094 133.81677734 151.19121094 133.81677734 150.12597656 132.54638672 C144.7097373 126.28506048 138.79604726 121.09462348 132.23535156 116.06201172 C131.38328125 115.39427734 130.53121094 114.72654297 129.65332031 114.03857422 C100.80126532 92.15080836 62.92959462 82.03801168 27.00488281 81.85888672 C25.58721115 81.84836525 25.58721115 81.84836525 24.14089966 81.83763123 C21.1098346 81.8202299 18.07896473 81.81377973 15.04785156 81.81201172 C14.01379181 81.81133698 12.97973206 81.81066223 11.91433716 81.80996704 C-2.85603369 81.82530968 -17.24848567 82.06340897 -31.76464844 85.06201172 Z " fill="#232323" transform="translate(1749.7646484375,221.93798828125)"/>
<path d="M0 0 C297.98853211 0 297.98853211 0 353 39 C353.90621094 39.62390625 354.81242187 40.2478125 355.74609375 40.890625 C362.26891492 45.48645461 368.2111963 50.51539928 374 56 C374.88558594 56.82113281 375.77117187 57.64226562 376.68359375 58.48828125 C400.93448852 81.70722305 413.39178922 113.14847054 418 146 C418.15251221 147.07785767 418.15251221 147.07785767 418.30810547 148.17749023 C419.34972912 156.84561862 419.24376517 165.59494044 419.25 174.3125 C419.25067474 175.16003845 419.25134949 176.0075769 419.25204468 176.88079834 C419.23570887 189.80562464 418.75125936 202.32664571 416 215 C415.82307617 215.8357959 415.64615234 216.6715918 415.46386719 217.53271484 C408.90489199 247.7391179 395.47389059 273.74919586 374 296 C373.22269531 296.84046875 372.44539063 297.6809375 371.64453125 298.546875 C343.02136277 328.65633866 299.89883425 345.13623382 260 353 C258.93072266 353.21108398 257.86144531 353.42216797 256.75976562 353.63964844 C205.98496805 363.39081515 155.80328432 361 104 361 C104 431.95 104 502.9 104 576 C69.68 576 35.36 576 0 576 C0 385.92 0 195.84 0 0 Z M104 80 C104 146.33 104 212.66 104 281 C195.16016519 285.41412602 195.16016519 285.41412602 281 252 C281.82886719 251.34644531 282.65773438 250.69289063 283.51171875 250.01953125 C300.74835198 235.52808922 309.28688148 214.14757529 311.81689453 192.20385742 C314.10852592 164.62178205 310.07386939 138.67456662 292.8125 116.4375 C276.88956647 97.69844434 254.25558495 89.17848725 230.75 84.3125 C229.77530762 84.10971436 228.80061523 83.90692871 227.79638672 83.69799805 C187.36962662 75.81731349 144.02925165 80 104 80 Z " fill="#232323" transform="translate(0,231)"/>
<path d="M0 0 C0.64843872 0.21414551 1.29687744 0.42829102 1.96496582 0.64892578 C5.938793 1.9617015 9.90421757 3.29610462 13.86004639 4.66220093 C15.71441232 5.30025492 17.57324327 5.92528479 19.43212891 6.55004883 C20.54249512 6.94216553 21.65286133 7.33428223 22.796875 7.73828125 C23.78010742 8.07899658 24.76333984 8.41971191 25.77636719 8.77075195 C28 10 28 10 28.99121094 11.71533203 C29.00420466 15.09297733 27.70591027 17.7938813 26.34375 20.81640625 C26.04981857 21.49331512 25.75588715 22.170224 25.45304871 22.86764526 C24.47920686 25.10402243 23.48961967 27.33306543 22.5 29.5625 C21.82018599 31.11610009 21.14157261 32.67022605 20.46411133 34.22485352 C19.04391203 37.48165838 17.61844767 40.73608879 16.18994141 43.98925781 C14.00847112 48.96780568 11.86410512 53.9617314 9.73046875 58.9609375 C9.38883698 59.76121872 9.0472052 60.56149994 8.69522095 61.3860321 C8.02142139 62.96511934 7.34778366 64.54427565 6.67431641 66.12350464 C5.10166721 69.811225 3.52716835 73.49813822 1.94921875 77.18359375 C1.67901413 77.81748016 1.40880951 78.45136658 1.13041687 79.10446167 C-0.16079026 82.11769927 -1.49138086 85.08887531 -3 88 C-9.507413 87.42821894 -15.11018248 85.24662292 -21.1875 82.9375 C-78.70236394 61.73374622 -156.93160624 41.99219814 -216.10498047 68.09765625 C-231.93045405 75.6332077 -245.08349735 87.76904486 -251.27734375 104.4375 C-257.32151526 123.36586628 -256.54965368 142.98274186 -248.4453125 161.25390625 C-246.13908687 165.63573495 -243.22581556 169.26706933 -240 173 C-239.51273438 173.64195312 -239.02546875 174.28390625 -238.5234375 174.9453125 C-213.59667789 206.519208 -161.72827368 219.79286141 -125.6953125 233.5703125 C-41.14943535 265.92335686 -41.14943535 265.92335686 -8 295 C-7.07832031 295.78890625 -6.15664062 296.5778125 -5.20703125 297.390625 C1.27760068 303.07921246 6.76598922 309.15329586 12 316 C12.67804688 316.86238281 13.35609375 317.72476562 14.0546875 318.61328125 C32.37805567 342.6760702 39.22352571 371.99481745 39.25 401.8125 C39.25067474 402.4977475 39.25134949 403.182995 39.25204468 403.88900757 C39.23400032 415.47196475 38.51355134 426.66675328 36 438 C35.83371094 438.75490723 35.66742187 439.50981445 35.49609375 440.28759766 C29.88238086 464.71244661 17.92726567 485.69055038 1 504 C0.25105469 504.81984375 -0.49789063 505.6396875 -1.26953125 506.484375 C-11.93080618 517.6401432 -24.71866848 526.28459906 -38 534 C-38.66870117 534.38929688 -39.33740234 534.77859375 -40.02636719 535.1796875 C-73.61262855 554.45499975 -112.809976 562.47556371 -151 566 C-152.04164307 566.09643799 -153.08328613 566.19287598 -154.15649414 566.29223633 C-166.77288513 567.29401863 -179.41438111 567.19918537 -192.0625 567.1875 C-193.26585999 567.18689575 -194.46921997 567.1862915 -195.70904541 567.18566895 C-213.88800534 567.16088014 -231.90432158 566.88299439 -250 565 C-251.26215332 564.87109375 -252.52430664 564.7421875 -253.82470703 564.609375 C-292.77699929 560.5407799 -330.87709437 552.48124527 -367 537 C-367 507.3 -367 477.6 -367 447 C-356.93471629 450.35509457 -356.93471629 450.35509457 -352.75 451.98046875 C-308.08254688 469.14947236 -261.69161936 480.5819906 -214 485 C-213.28279785 485.07057617 -212.5655957 485.14115234 -211.82666016 485.21386719 C-173.96360228 488.83080827 -122.08101956 489.01239409 -90.6796875 463.39453125 C-76.48320074 451.11642952 -66.93798151 436.1473482 -65.12890625 417.1328125 C-65.06509766 416.07707031 -65.06509766 416.07707031 -65 415 C-64.94714844 414.13117188 -64.89429688 413.26234375 -64.83984375 412.3671875 C-64.29280222 394.5288769 -69.74362263 378.72901257 -81 365 C-81.86238281 364.16662109 -81.86238281 364.16662109 -82.7421875 363.31640625 C-84 362 -84 362 -84 360 C-84.59296875 359.731875 -85.1859375 359.46375 -85.796875 359.1875 C-88.01904035 357.98973712 -89.44756608 356.75189839 -91.25 355 C-119.16902213 330.24547398 -160.62475738 317.33023952 -195.01757812 304.50097656 C-214.05723485 297.39405692 -232.74964192 289.99372755 -251 281 C-251.93618164 280.53883789 -252.87236328 280.07767578 -253.83691406 279.60253906 C-276.75240088 268.19740981 -297.45480281 254.67668933 -316 237 C-316.85335938 236.21109375 -317.70671875 235.4221875 -318.5859375 234.609375 C-342.86117476 211.48280827 -357.72306922 176.66735834 -359.16113281 143.25634766 C-359.20715088 139.04569428 -359.24614744 134.83590704 -359.25 130.625 C-359.25100708 129.86399994 -359.25201416 129.10299988 -359.25305176 128.31893921 C-359.24285551 116.93827204 -358.67752492 106.09260326 -356 95 C-355.73316406 93.75605469 -355.46632813 92.51210938 -355.19140625 91.23046875 C-350.29512561 70.44847758 -339.74544518 51.35636758 -325 36 C-323.86969025 34.65026217 -322.744448 33.29625993 -321.625 31.9375 C-317.29384578 26.97762984 -312.19823163 23.01167876 -307 19 C-306.13375 18.3296875 -305.2675 17.659375 -304.375 16.96875 C-238.47951576 -32.45286318 -145.20000495 -31.79159669 0 0 Z " fill="#232323" transform="translate(1403,248)"/>
<path d="M0 0 C1.29988106 -0.00422974 1.29988106 -0.00422974 2.62602234 -0.00854492 C3.58398209 -0.00652069 4.54194183 -0.00449646 5.52893066 -0.00241089 C6.53208817 -0.00416321 7.53524567 -0.00591553 8.56880188 -0.00772095 C11.90253401 -0.01214152 15.23621357 -0.00920075 18.56994629 -0.00582886 C20.87540701 -0.00650184 23.18086765 -0.00747181 25.48632812 -0.00872803 C30.32524285 -0.01020528 35.16413916 -0.00804957 40.00305176 -0.00338745 C46.22114274 0.00230985 52.43919057 -0.00096901 58.65727997 -0.00695992 C63.42002694 -0.01056479 68.18276359 -0.00942728 72.94551086 -0.00683212 C75.23895777 -0.00616265 77.53240561 -0.00699198 79.82585144 -0.00931168 C83.02508035 -0.011837 86.22423832 -0.0079993 89.42346191 -0.00241089 C90.86040154 -0.00544724 90.86040154 -0.00544724 92.32637024 -0.00854492 C93.19295761 -0.0057251 94.05954498 -0.00290527 94.95239258 0 C95.70972939 0.00037703 96.46706619 0.00075405 97.2473526 0.0011425 C98.97619629 0.12698364 98.97619629 0.12698364 99.97619629 1.12698364 C100.07509841 3.74827281 100.10796332 6.34322503 100.09924412 8.96501255 C100.10039796 9.80022299 100.10155181 10.63543344 100.10274062 11.49595329 C100.10541487 14.33111775 100.10087852 17.16622689 100.09645081 20.00138855 C100.09688634 22.03990312 100.09776092 24.07841764 100.09903997 26.11693186 C100.10128838 31.74705704 100.09725895 37.3771634 100.09226191 43.00728619 C100.08796252 49.06799326 100.08940347 55.12869918 100.09016418 61.18940735 C100.09068975 71.69944055 100.08757433 82.20946828 100.08192635 92.71949959 C100.07601583 103.74625744 100.07216172 114.77301283 100.07107353 125.79977226 C100.07100479 126.48455883 100.07093605 127.1693454 100.07086523 127.87488308 C100.07052691 131.35235631 100.07022552 134.82982953 100.06993835 138.30730277 C100.06783614 162.95886799 100.06109378 187.61043 100.05163574 212.26199341 C100.04245614 236.21544376 100.03538706 260.16889322 100.03112793 284.12234497 C100.03085729 285.6277778 100.03058658 287.13321062 100.03031582 288.63864344 C100.02823034 300.29355794 100.02627864 311.94847247 100.02436125 323.603387 C100.01491946 380.77792224 99.99480308 437.95244923 99.97619629 495.12698364 C188.08619629 495.12698364 276.19619629 495.12698364 366.97619629 495.12698364 C366.97619629 521.85698364 366.97619629 548.58698364 366.97619629 576.12698364 C244.21619629 576.12698364 121.45619629 576.12698364 -5.02380371 576.12698364 C-5.06418235 431.70155262 -5.06418235 431.70155262 -5.07196867 376.47117507 C-5.07400999 362.02806442 -5.07609797 347.58495377 -5.0783297 333.14184315 C-5.07859954 331.39472511 -5.07886791 329.64760707 -5.0791348 327.90048902 C-5.08340555 300.02249344 -5.09091224 272.14449989 -5.10010093 244.26650553 C-5.10952356 215.62688412 -5.11568684 186.98726384 -5.1177187 158.34764091 C-5.11800688 154.30726554 -5.11833252 150.26689018 -5.11868095 146.22651482 C-5.11874838 145.43127071 -5.1188158 144.63602661 -5.11888527 143.8166842 C-5.12006935 130.9889022 -5.12471377 118.16112364 -5.13063574 105.33334305 C-5.13650866 92.45317968 -5.1387753 79.57301974 -5.13730509 66.69285507 C-5.13654154 59.03012406 -5.13859863 51.36740557 -5.14460125 43.70467681 C-5.14876771 37.99873696 -5.14777868 32.29280767 -5.14470261 26.58686756 C-5.14427668 24.26654175 -5.14557436 21.94621492 -5.14868689 19.62589116 C-5.15264693 16.49391246 -5.15056958 13.3619971 -5.14685154 10.23001957 C-5.14947855 9.31014795 -5.15210557 8.39027634 -5.15481219 7.44252983 C-5.13458161 0.00255615 -5.13458161 0.00255615 0 0 Z " fill="#242424" transform="translate(2133.0238037109375,230.87301635742188)"/>
<path d="M0 0 C-0.99 0 -1.98 0 -3 0 C-3.33 0.99 -3.66 1.98 -4 3 C-6.96915983 5.13779508 -9.95316183 5.22096491 -13.5078125 5.58984375 C-19.86032344 6.63531969 -26.62918592 8.41945728 -32 12 C-34.69921875 12.1953125 -34.69921875 12.1953125 -37.6875 12.125 C-39.17830078 12.09792969 -39.17830078 12.09792969 -40.69921875 12.0703125 C-41.45847656 12.04710937 -42.21773437 12.02390625 -43 12 C-39.50043187 9.66695458 -35.9503144 8.58590402 -31.97265625 7.36328125 C-31.18733017 7.11958298 -30.40200409 6.8758847 -29.59288025 6.62480164 C-27.93357848 6.11207075 -26.27344421 5.60202736 -24.61254883 5.09448242 C-22.0721526 4.31546001 -19.53711937 3.52046215 -17.00195312 2.72460938 C-15.38832455 2.22817836 -13.77440149 1.73270336 -12.16015625 1.23828125 C-11.4027565 0.9987825 -10.64535675 0.75928375 -9.86500549 0.51252747 C-6.14359152 -0.60714218 -3.70831244 -1.16202602 0 0 Z " fill="#E16976" transform="translate(1044,34)"/>
<path d="M0 0 C-2.64 3.63 -5.28 7.26 -8 11 C-10 8 -10 8 -10 6 C-9.01 6 -8.02 6 -7 6 C-7 5.34 -7 4.68 -7 4 C-12.28 4.66 -17.56 5.32 -23 6 C-19.52819555 3.6854637 -16.00204877 2.55044236 -12.0625 1.3125 C-11.34642578 1.07466797 -10.63035156 0.83683594 -9.89257812 0.59179688 C-5.94506045 -0.65575042 -4.11639393 -1.02909848 0 0 Z " fill="#E16772" transform="translate(1130,8)"/>
<path d="M0 0 C1 3 1 3 -0.1875 6.625 C-2 10 -2 10 -4.1875 10.9375 C-4.785625 10.958125 -5.38375 10.97875 -6 11 C-5.8453125 12.0828125 -5.8453125 12.0828125 -5.6875 13.1875 C-6.1310565 17.17950847 -7.95495873 18.52147804 -11 21 C-11.99 21 -12.98 21 -14 21 C-12.20866528 16.93896276 -9.59576427 13.50852999 -7 9.9375 C-3.43761598 5.01255555 -3.43761598 5.01255555 0 0 Z " fill="#E1626B" transform="translate(381,809)"/>
<path d="M0 0 C3.931308 3.712902 7.04797266 7.62574652 10.125 12.0625 C10.98140315 13.2828102 11.83816469 14.50286898 12.6953125 15.72265625 C13.28940918 16.57174561 13.28940918 16.57174561 13.89550781 17.43798828 C15.22664455 19.3205287 16.60136501 21.16714826 18 23 C17.67 23.66 17.34 24.32 17 25 C16.34 24.67 15.68 24.34 15 24 C15 23.34 15 22.68 15 22 C14.01 21.67 13.02 21.34 12 21 C11.67 19.35 11.34 17.7 11 16 C10.34 16 9.68 16 9 16 C9 15.34 9 14.68 9 14 C8.34 14 7.68 14 7 14 C6.67 12.35 6.34 10.7 6 9 C5.01 8.67 4.02 8.34 3 8 C1.3125 6.75 1.3125 6.75 0 5 C-0.1875 2.3125 -0.1875 2.3125 0 0 Z " fill="#DF606B" transform="translate(976,768)"/>
<path d="M0 0 C0.99 0 1.98 0 3 0 C3 0.99 3 1.98 3 3 C3.99 3.33 4.98 3.66 6 4 C6.75 6.6875 6.75 6.6875 7 10 C5.1875 12.875 5.1875 12.875 3 15 C2.34 15 1.68 15 1 15 C0.896875 15.598125 0.79375 16.19625 0.6875 16.8125 C-0.09824033 19.31258286 -0.96918853 20.37535082 -3 22 C-3.66 22 -4.32 22 -5 22 C-3.45158425 18.65291949 -1.50894136 15.75332488 0.625 12.75 C1.25664063 11.85796875 1.88828125 10.9659375 2.5390625 10.046875 C3.26222656 9.03367187 3.26222656 9.03367187 4 8 C2.68 5.36 1.36 2.72 0 0 Z " fill="#E04B56" transform="translate(608,484)"/>
<path d="M0 0 C3.68006822 3.38168431 5.9785845 6.42521756 8 11 C1.04976736 10.35346673 -5.38177303 8.13972752 -12 6 C-7.70272603 4.69339643 -4.39784135 5.3403238 0 6 C0 4.02 0 2.04 0 0 Z " fill="#E06671" transform="translate(1282,1189)"/>
<path d="M0 0 C0.33 0 0.66 0 1 0 C0.87186721 6.15037397 -1.21411973 8.99131753 -5.30859375 13.49609375 C-7 15 -7 15 -9 15 C-9 15.99 -9 16.98 -9 18 C-9.99 18 -10.98 18 -12 18 C-10.18351459 13.88955302 -7.54661813 10.38136102 -4.9375 6.75 C-4.47794922 6.1003125 -4.01839844 5.450625 -3.54492188 4.78125 C-2.39061476 3.16759306 -1.19851004 1.58110319 0 0 Z " fill="#E54A5A" transform="translate(430,742)"/>
<path d="M0 0 C0.99 0 1.98 0 3 0 C1.42488485 4.70734412 -1.1721734 8.34290011 -4.0625 12.3125 C-4.75182617 13.28026367 -4.75182617 13.28026367 -5.45507812 14.26757812 C-6.60739017 15.86660145 -7.80022598 17.43627337 -9 19 C-9.33 19 -9.66 19 -10 19 C-10 17.02 -10 15.04 -10 13 C-9.01 13 -8.02 13 -7 13 C-7 11.35 -7 9.7 -7 8 C-6.01 8 -5.02 8 -4 8 C-4 7.34 -4 6.68 -4 6 C-3.01 6 -2.02 6 -1 6 C-1.20625 5.38125 -1.4125 4.7625 -1.625 4.125 C-1.74875 3.42375 -1.8725 2.7225 -2 2 C-1.34 1.34 -0.68 0.68 0 0 Z " fill="#E0535D" transform="translate(671,632)"/>
<path d="M0 0 C0.66 1.32 1.32 2.64 2 4 C1.21625 4.763125 0.4325 5.52625 -0.375 6.3125 C-3.07257717 8.90891805 -3.07257717 8.90891805 -5 12 C-5.66 12 -6.32 12 -7 12 C-6.67 13.32 -6.34 14.64 -6 16 C-6.66 16 -7.32 16 -8 16 C-8.33 16.99 -8.66 17.98 -9 19 C-10.32 18.67 -11.64 18.34 -13 18 C-12.22914063 16.95199219 -11.45828125 15.90398437 -10.6640625 14.82421875 C-9.65100715 13.44533786 -8.63798822 12.06643021 -7.625 10.6875 C-7.11710938 9.99720703 -6.60921875 9.30691406 -6.0859375 8.59570312 C-5.59609375 7.92861328 -5.10625 7.26152344 -4.6015625 6.57421875 C-4.15119629 5.96151123 -3.70083008 5.34880371 -3.23681641 4.7175293 C-2.12239357 3.16996423 -1.05784918 1.58677377 0 0 Z " fill="#E1616E" transform="translate(782,258)"/>
<path d="M0 0 C1 2 1 2 0.4375 4.6875 C-1.3702123 8.85309792 -3.89421948 11.73616449 -7 15 C-7.51691406 15.56332031 -8.03382813 16.12664063 -8.56640625 16.70703125 C-10 18 -10 18 -12 18 C-10.18633597 13.87235084 -7.50853382 10.37940795 -4.875 6.75 C-4.17310547 5.77546875 -4.17310547 5.77546875 -3.45703125 4.78125 C-2.30725718 3.18564517 -1.15397434 1.59256975 0 0 Z " fill="#E15D6B" transform="translate(556,569)"/>
<path d="M0 0 C0.33 1.32 0.66 2.64 1 4 C-0.40367622 6.26229236 -1.77300018 8.20063057 -3.4375 10.25 C-4.0881543 11.08144531 -4.0881543 11.08144531 -4.75195312 11.9296875 C-5.82333224 13.29540154 -6.91021796 14.64892519 -8 16 C-8.99 15.67 -9.98 15.34 -11 15 C-7.37 10.05 -3.74 5.1 0 0 Z " fill="#E0535F" transform="translate(794,242)"/>
<path d="M0 0 C1 2 1 2 0.3125 5.375 C-1.00292408 9.00807603 -1.95292506 10.69160989 -5 13 C-5.99 13 -6.98 13 -8 13 C-8 13.66 -8 14.32 -8 15 C-8.66 15 -9.32 15 -10 15 C-8.37815499 11.41486894 -6.20743761 8.41007677 -3.875 5.25 C-3.15054688 4.26515625 -2.42609375 3.2803125 -1.6796875 2.265625 C-1.12539063 1.51796875 -0.57109375 0.7703125 0 0 Z " fill="#E25765" transform="translate(872,135)"/>
<path d="M0 0 C1.47906892 -0.02689216 2.95827483 -0.04634621 4.4375 -0.0625 C5.26121094 -0.07410156 6.08492188 -0.08570313 6.93359375 -0.09765625 C9 0 9 0 10 1 C12.32817964 1.36760731 14.6618385 1.70241581 17 2 C17 2.66 17 3.32 17 4 C17.99 4.33 18.98 4.66 20 5 C16.94371936 5.97812873 15.14722553 6.00835683 12.109375 5.00390625 C11.40039062 4.77509766 10.69140625 4.54628906 9.9609375 4.31054688 C9.23132813 4.06369141 8.50171875 3.81683594 7.75 3.5625 C7.00492187 3.31951172 6.25984375 3.07652344 5.4921875 2.82617188 C3.65841765 2.22667019 1.82877996 1.61455513 0 1 C0 0.67 0 0.34 0 0 Z " fill="#E05F67" transform="translate(370,923)"/>
<path d="M0 0 C2.4375 0.6875 2.4375 0.6875 5 2 C5.8125 4.625 5.8125 4.625 6 7 C7.32 7.33 8.64 7.66 10 8 C10.33 9.65 10.66 11.3 11 13 C10.01 13 9.02 13 8 13 C5.95703125 10.6640625 5.95703125 10.6640625 3.8125 7.625 C2.73935547 6.12839844 2.73935547 6.12839844 1.64453125 4.6015625 C0 2 0 2 0 0 Z " fill="#E05661" transform="translate(1038,1074)"/>
<path d="M0 0 C0.99 0 1.98 0 3 0 C2.39262151 3.98592134 0.36780019 6.55346975 -2 9.75 C-2.721875 10.73484375 -3.44375 11.7196875 -4.1875 12.734375 C-4.785625 13.48203125 -5.38375 14.2296875 -6 15 C-6.33 15 -6.66 15 -7 15 C-7 13.35 -7 11.7 -7 10 C-6.01 10 -5.02 10 -4 10 C-3.67 8.02 -3.34 6.04 -3 4 C-2.01 4 -1.02 4 0 4 C0 2.68 0 1.36 0 0 Z " fill="#DE515A" transform="translate(600,729)"/>
<path d="M0 0 C-0.33 0.99 -0.66 1.98 -1 3 C-2.7015625 3.2165625 -2.7015625 3.2165625 -4.4375 3.4375 C-7.80777201 3.61171478 -7.80777201 3.61171478 -9 5 C-10.84891946 5.23363881 -12.70488031 5.41303635 -14.5625 5.5625 C-16.08037109 5.68818359 -16.08037109 5.68818359 -17.62890625 5.81640625 C-18.41136719 5.87699219 -19.19382812 5.93757813 -20 6 C-17.30434515 3.30434515 -14.78319847 2.9017293 -11.125 1.875 C-9.89007812 1.52179687 -8.65515625 1.16859375 -7.3828125 0.8046875 C-4 0 -4 0 0 0 Z " fill="#E56E7B" transform="translate(988,50)"/>
<path d="M0 0 C1.32 0.33 2.64 0.66 4 1 C4 1.66 4 2.32 4 3 C4.66 3 5.32 3 6 3 C6 4.32 6 5.64 6 7 C6.639375 7.20625 7.27875 7.4125 7.9375 7.625 C10 9 10 9 10.75 12.125 C10.87375 13.548125 10.87375 13.548125 11 15 C6.48314191 10.88168822 3.1481023 6.23601895 0 1 C0 0.67 0 0.34 0 0 Z " fill="#E15F6A" transform="translate(430,240)"/>
<path d="M0 0 C2.0625 0.4375 2.0625 0.4375 4 1 C2.52485505 3.1695061 1.0451561 5.33563707 -0.4375 7.5 C-0.85837891 8.12003906 -1.27925781 8.74007812 -1.71289062 9.37890625 C-2.78308137 10.93710398 -3.88879518 12.47078051 -5 14 C-5.33 14 -5.66 14 -6 14 C-6 12.35 -6 10.7 -6 9 C-5.34 9 -4.68 9 -4 9 C-4 8.01 -4 7.02 -4 6 C-3.34 6 -2.68 6 -2 6 C-2 5.34 -2 4.68 -2 4 C-1.34 4 -0.68 4 0 4 C-0.33 3.01 -0.66 2.02 -1 1 C-0.67 0.67 -0.34 0.34 0 0 Z " fill="#E15967" transform="translate(1101,41)"/>
<path d="M0 0 C1.32 0.33 2.64 0.66 4 1 C-0.455 6.94 -0.455 6.94 -5 13 C-5.33 11.68 -5.66 10.36 -6 9 C-5.34 9 -4.68 9 -4 9 C-4 8.01 -4 7.02 -4 6 C-3.34 6 -2.68 6 -2 6 C-1.855625 5.195625 -1.71125 4.39125 -1.5625 3.5625 C-1 1 -1 1 0 0 Z " fill="#E25764" transform="translate(869,360)"/>
<path d="M0 0 C0.99 0 1.98 0 3 0 C2.39665691 3.70503641 0.77525763 5.85968148 -1.5625 8.75 C-2.52349609 9.94882813 -2.52349609 9.94882813 -3.50390625 11.171875 C-3.99761719 11.77515625 -4.49132812 12.3784375 -5 13 C-5.33 11.68 -5.66 10.36 -6 9 C-4.68 8.34 -3.36 7.68 -2 7 C-2.33 5.68 -2.66 4.36 -3 3 C-2.01 2.67 -1.02 2.34 0 2 C0 1.34 0 0.68 0 0 Z " fill="#DE5561" transform="translate(973,217)"/>
<path d="M0 0 C1.32 0 2.64 0 4 0 C4.268125 0.7425 4.53625 1.485 4.8125 2.25 C5.87348879 5.01274557 5.87348879 5.01274557 7.625 7.125 C9 9 9 9 9 12 C9.66 12.33 10.32 12.66 11 13 C10.01 13 9.02 13 8 13 C5.95703125 10.6640625 5.95703125 10.6640625 3.8125 7.625 C2.73935547 6.12839844 2.73935547 6.12839844 1.64453125 4.6015625 C0 2 0 2 0 0 Z " fill="#E05A67" transform="translate(947,949)"/>
<path d="M0 0 C0.33 1.32 0.66 2.64 1 4 C-0.98 4.99 -0.98 4.99 -3 6 C-3 7.65 -3 9.3 -3 11 C-3.639375 11.28875 -4.27875 11.5775 -4.9375 11.875 C-7.15206079 12.82823451 -7.15206079 12.82823451 -8 15 C-8.66 15 -9.32 15 -10 15 C-8.37815499 11.41486894 -6.20743761 8.41007677 -3.875 5.25 C-3.15054688 4.26515625 -2.42609375 3.2803125 -1.6796875 2.265625 C-1.12539063 1.51796875 -0.57109375 0.7703125 0 0 Z " fill="#E1626D" transform="translate(734,324)"/>
<path d="M0 0 C-1.38780795 3.89006773 -3.2152227 6.96558708 -5.625 10.3125 C-6.25664062 11.19550781 -6.88828125 12.07851563 -7.5390625 12.98828125 C-8.02117187 13.65214844 -8.50328125 14.31601562 -9 15 C-9.33 13.68 -9.66 12.36 -10 11 C-9.34 11 -8.68 11 -8 11 C-8 10.01 -8 9.02 -8 8 C-7.34 8 -6.68 8 -6 8 C-6 7.01 -6 6.02 -6 5 C-5.34 5 -4.68 5 -4 5 C-4 3.68 -4 2.36 -4 1 C-2 0 -2 0 0 0 Z " fill="#DE5C68" transform="translate(505,864)"/>
<path d="M0 0 C1.40742811 2.81485621 0.95208252 4.00774065 0 7 C-1.53781292 9.15699832 -3.21404953 11.03087512 -5 13 C-5.66 12.01 -6.32 11.02 -7 10 C-3.535 5.05 -3.535 5.05 0 0 Z " fill="#E2505B" transform="translate(763,284)"/>
<path d="M0 0 C-1.6075265 3.21505299 -4.75657713 3.90330306 -8 5 C-17.02497803 7.38082242 -17.02497803 7.38082242 -22 6 C-18.8980736 4.9929564 -15.79311902 3.99559195 -12.6875 3 C-11.80642578 2.71382812 -10.92535156 2.42765625 -10.01757812 2.1328125 C-8.74624023 1.72675781 -8.74624023 1.72675781 -7.44921875 1.3125 C-6.27879028 0.93544922 -6.27879028 0.93544922 -5.0847168 0.55078125 C-3 0 -3 0 0 0 Z " fill="#E16A75" transform="translate(542,194)"/>
<path d="M0 0 C4.29 0.33 8.58 0.66 13 1 C13 1.66 13 2.32 13 3 C14.175625 3.185625 14.175625 3.185625 15.375 3.375 C18 4 18 4 20 6 C15.41105799 5.32930848 11.07452793 4.23877704 6.625 2.9375 C5.37976562 2.57527344 4.13453125 2.21304687 2.8515625 1.83984375 C1.91054687 1.56269531 0.96953125 1.28554687 0 1 C0 0.67 0 0.34 0 0 Z " fill="#E16470" transform="translate(1210,1176)"/>
<path d="M0 0 C-0.99 0 -1.98 0 -3 0 C-3.33 0.99 -3.66 1.98 -4 3 C-7.63367561 5.76159346 -11.65038836 5.14498705 -16 5 C-13 3 -13 3 -10 3 C-10 2.34 -10 1.68 -10 1 C-3.71428571 -1.42857143 -3.71428571 -1.42857143 0 0 Z " fill="#DF4955" transform="translate(1044,34)"/>
<path d="M0 0 C3.11728368 1.36508501 5.08663738 2.86919698 7.3125 5.4375 C7.84488281 6.03433594 8.37726562 6.63117187 8.92578125 7.24609375 C9.45751953 8.11427734 9.45751953 8.11427734 10 9 C9.67 9.99 9.34 10.98 9 12 C4.99027798 8.32442148 2.54664585 4.81033104 0 0 Z " fill="#E05C6B" transform="translate(774,712)"/>
<path d="M0 0 C0.609375 1.83984375 0.609375 1.83984375 1 4 C-1.04633716 6.99642227 -3.44524964 9.44524964 -6 12 C-6.33 12.66 -6.66 13.32 -7 14 C-7.66 14 -8.32 14 -9 14 C-7.65070536 10.16336928 -5.92248975 7.34827431 -3.375 4.1875 C-2.42753906 3.00220703 -2.42753906 3.00220703 -1.4609375 1.79296875 C-0.97882813 1.20128906 -0.49671875 0.60960937 0 0 Z M1 3 C3 4 3 4 3 4 Z " fill="#E36471" transform="translate(484,668)"/>
<path d="M0 0 C0.99 0.66 1.98 1.32 3 2 C2.01 3.485 2.01 3.485 1 5 C0.34 5 -0.32 5 -1 5 C-1.2475 5.804375 -1.495 6.60875 -1.75 7.4375 C-3 10 -3 10 -5.125 10.8125 C-5.74375 10.874375 -6.3625 10.93625 -7 11 C-5.22054913 6.95579349 -2.60470327 3.53921513 0 0 Z " fill="#E35563" transform="translate(500,646)"/>
<path d="M0 0 C0.33 0.99 0.66 1.98 1 3 C-0.75 5.375 -0.75 5.375 -3 8 C-3.53625 8.928125 -4.0725 9.85625 -4.625 10.8125 C-5.07875 11.534375 -5.5325 12.25625 -6 13 C-6.66 13 -7.32 13 -8 13 C-8 13.66 -8 14.32 -8 15 C-8.66 14.67 -9.32 14.34 -10 14 C-6.7 9.38 -3.4 4.76 0 0 Z " fill="#DE646D" transform="translate(511,631)"/>
<path d="M0 0 C1 3 1 3 -0.1875 5.9375 C-1.89368313 8.82036115 -3.4427135 10.85517906 -6 13 C-6.66 13 -7.32 13 -8 13 C-8 13.66 -8 14.32 -8 15 C-8.66 14.67 -9.32 14.34 -10 14 C-6.7 9.38 -3.4 4.76 0 0 Z " fill="#E0626B" transform="translate(567,554)"/>
<path d="M0 0 C-0.33 1.32 -0.66 2.64 -1 4 C-1 3.34 -1 2.68 -1 2 C-6.28 2.66 -11.56 3.32 -17 4 C-11.35084394 0.23389596 -6.59922601 -0.22755952 0 0 Z " fill="#DF505E" transform="translate(1124,10)"/>
<path d="M0 0 C0.33 0.66 0.66 1.32 1 2 C0.21625 2.309375 -0.5675 2.61875 -1.375 2.9375 C-3.92330128 3.92875038 -3.92330128 3.92875038 -6 5 C-7.87379605 5.07033769 -9.75001102 5.0843022 -11.625 5.0625 C-12.62789062 5.05347656 -13.63078125 5.04445313 -14.6640625 5.03515625 C-15.43492187 5.02355469 -16.20578125 5.01195312 -17 5 C-11.63228121 1.4215208 -6.28412196 0.65008158 0 0 Z " fill="#DD505B" transform="translate(1018,41)"/>
<path d="M0 0 C11.84939759 0.61144578 11.84939759 0.61144578 17 4 C17.33 4.66 17.66 5.32 18 6 C5.33029613 2.92482916 5.33029613 2.92482916 0 1 C0 0.67 0 0.34 0 0 Z " fill="#E06570" transform="translate(1104,1144)"/>
<path d="M0 0 C0.99 0 1.98 0 3 0 C2.38801624 3.43950364 1.07941153 5.51564485 -1.0625 8.25 C-1.61035156 8.95640625 -2.15820312 9.6628125 -2.72265625 10.390625 C-3.14417969 10.92171875 -3.56570313 11.4528125 -4 12 C-4.33 10.68 -4.66 9.36 -5 8 C-4.34 8 -3.68 8 -3 8 C-3 7.01 -3 6.02 -3 5 C-2.34 5 -1.68 5 -1 5 C-0.67 3.35 -0.34 1.7 0 0 Z " fill="#E05962" transform="translate(820,427)"/>
<path d="M0 0 C0.33 0 0.66 0 1 0 C1 1.65 1 3.3 1 5 C0.34 5 -0.32 5 -1 5 C-1 5.66 -1 6.32 -1 7 C-1.66 7 -2.32 7 -3 7 C-3.33 8.32 -3.66 9.64 -4 11 C-5.32 11.33 -6.64 11.66 -8 12 C-6.85573734 10.186508 -5.70954608 8.37423275 -4.5625 6.5625 C-3.60537109 5.04849609 -3.60537109 5.04849609 -2.62890625 3.50390625 C-1 1 -1 1 0 0 Z " fill="#E05763" transform="translate(750,302)"/>
<path d="M0 0 C0.33 0.66 0.66 1.32 1 2 C-0.58711039 5.65035389 -2.353906 9.0087633 -5 12 C-5.66 12 -6.32 12 -7 12 C-7 12.66 -7 13.32 -7 14 C-7.66 14 -8.32 14 -9 14 C-7.45158425 10.65291949 -5.50894136 7.75332488 -3.375 4.75 C-2.74335937 3.85796875 -2.11171875 2.9659375 -1.4609375 2.046875 C-0.73777344 1.03367188 -0.73777344 1.03367188 0 0 Z " fill="#E2616E" transform="translate(842,176)"/>
<path d="M0 0 C3.85645121 -0.22036864 6.49223216 0.39644899 10 2 C10 2.66 10 3.32 10 4 C11.65 4 13.3 4 15 4 C15 4.66 15 5.32 15 6 C13.06213915 5.52229477 11.12472326 5.04278429 9.1875 4.5625 C8.10855469 4.29566406 7.02960938 4.02882813 5.91796875 3.75390625 C3.9259157 3.23922588 1.95188476 2.65062825 0 2 C0 1.34 0 0.68 0 0 Z " fill="#DF5F6B" transform="translate(334,911)"/>
<path d="M0 0 C1 4 1 4 0.00390625 5.921875 C-0.47175781 6.52515625 -0.94742187 7.1284375 -1.4375 7.75 C-1.91058594 8.36359375 -2.38367188 8.9771875 -2.87109375 9.609375 C-3.24363281 10.06828125 -3.61617188 10.5271875 -4 11 C-4.99 10.67 -5.98 10.34 -7 10 C-3.535 5.05 -3.535 5.05 0 0 Z " fill="#E25764" transform="translate(334,874)"/>
<path d="M0 0 C0.33 0 0.66 0 1 0 C1 1.65 1 3.3 1 5 C0.0409375 5.37125 0.0409375 5.37125 -0.9375 5.75 C-3.18741541 6.81562433 -3.18741541 6.81562433 -3.75 9.125 C-3.8325 9.74375 -3.915 10.3625 -4 11 C-4.99 10.67 -5.98 10.34 -7 10 C-5.85821872 8.33055479 -4.71147095 6.6645052 -3.5625 5 C-2.92441406 4.071875 -2.28632813 3.14375 -1.62890625 2.1875 C-1.09136719 1.465625 -0.55382812 0.74375 0 0 Z " fill="#E35566" transform="translate(398,786)"/>
<path d="M0 0 C0.33 0.99 0.66 1.98 1 3 C0.67 3.66 0.34 4.32 0 5 C-0.66 5 -1.32 5 -2 5 C-2.185625 6.4540625 -2.185625 6.4540625 -2.375 7.9375 C-2.58125 8.948125 -2.7875 9.95875 -3 11 C-3.99 11.495 -3.99 11.495 -5 12 C-5.66 11.67 -6.32 11.34 -7 11 C-5.22054913 6.95579349 -2.60470327 3.53921513 0 0 Z " fill="#E15D69" transform="translate(575,543)"/>
<path d="M0 0 C0.33 0.66 0.66 1.32 1 2 C1.66 2.33 2.32 2.66 3 3 C1.625 5 1.625 5 0 7 C-0.66 7 -1.32 7 -2 7 C-2 7.66 -2 8.32 -2 9 C-3.32 9.33 -4.64 9.66 -6 10 C-4.34832443 6.4213696 -2.21713508 3.25179812 0 0 Z " fill="#E0545D" transform="translate(741,314)"/>
<path d="M0 0 C6.88490225 -0.57374185 11.02667877 0.5246131 17 4 C13.02623171 5.56393356 10.18622097 4.36145292 6.25 3.0625 C4.49429687 2.49208984 4.49429687 2.49208984 2.703125 1.91015625 C1.81109375 1.60980469 0.9190625 1.30945312 0 1 C0 0.67 0 0.34 0 0 Z " fill="#E16873" transform="translate(1193,1171)"/>
<path d="M0 0 C4.00972202 3.67557852 6.45335415 7.18966896 9 12 C8.01 12 7.02 12 6 12 C6 11.34 6 10.68 6 10 C5.34 10 4.68 10 4 10 C4 8.68 4 7.36 4 6 C2.68 6 1.36 6 0 6 C0 4.02 0 2.04 0 0 Z " fill="#E05D69" transform="translate(1093,929)"/>
<path d="M0 0 C0.33 0 0.66 0 1 0 C1 1.65 1 3.3 1 5 C-0.98 5.99 -0.98 5.99 -3 7 C-3 7.99 -3 8.98 -3 10 C-4.32 10.33 -5.64 10.66 -7 11 C-2.57493188 3.0653951 -2.57493188 3.0653951 0 0 Z " fill="#E05C6A" transform="translate(430,742)"/>
<path d="M0 0 C0.33 0.66 0.66 1.32 1 2 C-1.4 8.4 -1.4 8.4 -4 11 C-4.99 11 -5.98 11 -7 11 C-5.22054913 6.95579349 -2.60470327 3.53921513 0 0 Z " fill="#E25967" transform="translate(460,701)"/>
<path d="M0 0 C4.00972202 3.67557852 6.45335415 7.18966896 9 12 C8.34 12 7.68 12 7 12 C7 11.34 7 10.68 7 10 C6.34 10 5.68 10 5 10 C5 9.34 5 8.68 5 8 C4.01 7.67 3.02 7.34 2 7 C0.8125 3.4375 0.8125 3.4375 0 0 Z " fill="#E06371" transform="translate(922,694)"/>
<path d="M0 0 C0.33 0 0.66 0 1 0 C1 1.65 1 3.3 1 5 C0.01 5 -0.98 5 -2 5 C-2.2475 5.969375 -2.495 6.93875 -2.75 7.9375 C-3.1625 8.948125 -3.575 9.95875 -4 11 C-6.078125 11.69140625 -6.078125 11.69140625 -8 12 C-4 6 -4 6 0 0 Z " fill="#DF5D6C" transform="translate(706,362)"/>
<path d="M0 0 C1.72985242 0.11512153 3.45888751 0.24255677 5.1875 0.375 C6.15042969 0.44460938 7.11335938 0.51421875 8.10546875 0.5859375 C11.01508938 1.00215853 13.32890774 1.79874096 16 3 C15.67 3.66 15.34 4.32 15 5 C13.06077578 4.54901762 11.12366406 4.08894441 9.1875 3.625 C8.10855469 3.36976563 7.02960938 3.11453125 5.91796875 2.8515625 C3 2 3 2 0 0 Z " fill="#E0636E" transform="translate(354,918)"/>
<path d="M0 0 C2.4375 0.6875 2.4375 0.6875 5 2 C5.8125 4.625 5.8125 4.625 6 7 C6.66 7 7.32 7 8 7 C7.67 7.99 7.34 8.98 7 10 C4.4000702 7.48972295 2.00908773 5.0136316 0 2 C0 1.34 0 0.68 0 0 Z " fill="#E05464" transform="translate(923,916)"/>
<path d="M0 0 C1 2 1 2 -0.125 5.5 C-2 9 -2 9 -4.6875 10.4375 C-5.450625 10.623125 -6.21375 10.80875 -7 11 C-5.22054913 6.95579349 -2.60470327 3.53921513 0 0 Z " fill="#E0606A" transform="translate(417,760)"/>
<path d="M0 0 C0.99 0 1.98 0 3 0 C1.44298069 4.67105792 -1.08447373 8.08705685 -4 12 C-4.33 10.68 -4.66 9.36 -5 8 C-4.34 8 -3.68 8 -3 8 C-2.87625 7.195625 -2.7525 6.39125 -2.625 5.5625 C-2.41875 4.716875 -2.2125 3.87125 -2 3 C-1.34 2.67 -0.68 2.34 0 2 C0 1.34 0 0.68 0 0 Z " fill="#E0626C" transform="translate(578,760)"/>
<path d="M0 0 C1 2 1 2 0.25 4.5625 C-1 7 -1 7 -4 8 C-4.73323796 10.01508358 -4.73323796 10.01508358 -5 12 C-5.66 11.67 -6.32 11.34 -7 11 C-5.22054913 6.95579349 -2.60470327 3.53921513 0 0 Z " fill="#E15E6A" transform="translate(543,587)"/>
<path d="M0 0 C1 2 1 2 0.25 4.5625 C-1 7 -1 7 -4 8 C-4 8.99 -4 9.98 -4 11 C-4.99 11 -5.98 11 -7 11 C-5.22054913 6.95579349 -2.60470327 3.53921513 0 0 Z " fill="#E25E69" transform="translate(723,339)"/>
<path d="M0 0 C0.66 0.33 1.32 0.66 2 1 C0.61392377 2.46761013 -0.78431195 3.92374189 -2.1875 5.375 C-2.96480469 6.18710937 -3.74210937 6.99921875 -4.54296875 7.8359375 C-6.987055 9.98859852 -8.92616557 11.00632706 -12 12 C-8.57833482 7.29521038 -4.42094803 3.72346836 0 0 Z " fill="#666666" transform="translate(1093,269)"/>
<path d="M0 0 C0.33 1.32 0.66 2.64 1 4 C0.34 4 -0.32 4 -1 4 C-1.103125 4.598125 -1.20625 5.19625 -1.3125 5.8125 C-2.08876455 8.28243264 -3.07088921 9.32251235 -5 11 C-5.66 10.67 -6.32 10.34 -7 10 C-3.535 5.05 -3.535 5.05 0 0 Z " fill="#E1606B" transform="translate(888,113)"/>
<path d="M0 0 C0.66 0 1.32 0 2 0 C4.74778884 3.58045212 6.46968862 6.4923533 7 11 C3.71211176 7.88983545 1.16264012 4.98381075 -1 1 C-0.67 0.67 -0.34 0.34 0 0 Z " fill="#E06872" transform="translate(939,937)"/>
<path d="M0 0 C0.66 0 1.32 0 2 0 C2 0.66 2 1.32 2 2 C2.99 2 3.98 2 5 2 C5 2.99 5 3.98 5 5 C5.66 5 6.32 5 7 5 C7 6.32 7 7.64 7 9 C7.66 9.33 8.32 9.66 9 10 C8.01 10 7.02 10 6 10 C4.39453125 8.06640625 4.39453125 8.06640625 2.8125 5.5625 C2.28269531 4.73878906 1.75289062 3.91507813 1.20703125 3.06640625 C0 1 0 1 0 0 Z " fill="#E2626B" transform="translate(930,926)"/>
<path d="M0 0 C0.33 0.66 0.66 1.32 1 2 C0.36328125 3.91015625 0.36328125 3.91015625 -0.6875 6.0625 C-1.18830078 7.13177734 -1.18830078 7.13177734 -1.69921875 8.22265625 C-3 10 -3 10 -5.14453125 10.74609375 C-6.06298828 10.87177734 -6.06298828 10.87177734 -7 11 C-5.22054913 6.95579349 -2.60470327 3.53921513 0 0 Z " fill="#E06270" transform="translate(610,495)"/>
<path d="M0 0 C3.37452744 1.39635618 5.11638118 2.8606353 7 6 C7.6875 8.75 7.6875 8.75 8 11 C2.19794344 5.35475578 2.19794344 5.35475578 0 2 C0 1.34 0 0.68 0 0 Z " fill="#E26475" transform="translate(568,429)"/>
<path d="M0 0 C0.66 1.32 1.32 2.64 2 4 C0.37660195 5.70884005 -1.29319053 7.37446717 -3 9 C-3.66 9 -4.32 9 -5 9 C-3.7508258 5.54074837 -2.32472205 2.85306797 0 0 Z " fill="#E35A65" transform="translate(800,233)"/>
<path d="M0 0 C3.39417765 3.12621626 5.6062718 5.56541027 7 10 C6.34 10 5.68 10 5 10 C5 9.34 5 8.68 5 8 C4.01 8 3.02 8 2 8 C1.34 5.36 0.68 2.72 0 0 Z " fill="#E3656B" transform="translate(1082,914)"/>
<path d="M0 0 C0.99 0 1.98 0 3 0 C3 0.99 3 1.98 3 3 C3.99 3.33 4.98 3.66 6 4 C7.1875 7.5625 7.1875 7.5625 8 11 C4.31993178 7.61831569 2.0214155 4.57478244 0 0 Z " fill="#E16773" transform="translate(887,867)"/>
<path d="M0 0 C1 2 1 2 -0.125 5.5 C-2 9 -2 9 -4.6875 10.4375 C-5.450625 10.623125 -6.21375 10.80875 -7 11 C-5.22054913 6.95579349 -2.60470327 3.53921513 0 0 Z " fill="#E26170" transform="translate(350,852)"/>
<path d="M0 0 C1 2 1 2 0.3125 4.375 C-1.10916729 7.21833459 -2.57792728 8.95637614 -5 11 C-5.66 11 -6.32 11 -7 11 C-5.22054913 6.95579349 -2.60470327 3.53921513 0 0 Z " fill="#E2666E" transform="translate(441,727)"/>
<path d="M0 0 C1 3 1 3 -0.4375 6.1875 C-1.2109375 7.5796875 -1.2109375 7.5796875 -2 9 C-2.99 9 -3.98 9 -5 9 C-5 9.66 -5 10.32 -5 11 C-5.66 11 -6.32 11 -7 11 C-5.22054913 6.95579349 -2.60470327 3.53921513 0 0 Z " fill="#DE5F6A" transform="translate(449,716)"/>
<path d="M0 0 C0.66 0 1.32 0 2 0 C2 0.66 2 1.32 2 2 C2.99 2 3.98 2 5 2 C5.33 3.65 5.66 5.3 6 7 C6.99 7.33 7.98 7.66 9 8 C8.01 9.485 8.01 9.485 7 11 C5.83051998 9.35616456 4.6644855 7.70987731 3.5 6.0625 C2.8503125 5.14597656 2.200625 4.22945312 1.53125 3.28515625 C0 1 0 1 0 0 Z " fill="#E05D6C" transform="translate(753,683)"/>
<path d="M0 0 C0.33 0 0.66 0 1 0 C1.33 1.98 1.66 3.96 2 6 C-0.31 6.66 -2.62 7.32 -5 8 C-3.6299034 5.0490227 -2.06764583 2.51713405 0 0 Z " fill="#E05362" transform="translate(474,682)"/>
<path d="M0 0 C1.37245106 2.74490212 0.93580311 4.12060581 0 7 C-2 8.1875 -2 8.1875 -4 9 C-4.33 9.66 -4.66 10.32 -5 11 C-5.66 11 -6.32 11 -7 11 C-5.22054913 6.95579349 -2.60470327 3.53921513 0 0 Z " fill="#DF616B" transform="translate(519,620)"/>
<path d="M0 0 C0.99 0 1.98 0 3 0 C1.23867546 4.00301032 -1.26132483 7.6028977 -4 11 C-4.33 11 -4.66 11 -5 11 C-5 9.35 -5 7.7 -5 6 C-4.01 6 -3.02 6 -2 6 C-2 5.01 -2 4.02 -2 3 C-1.34 3 -0.68 3 0 3 C0 2.01 0 1.02 0 0 Z " fill="#E36473" transform="translate(845,394)"/>
<path d="M0 0 C2.31 0.33 4.62 0.66 7 1 C6.67 2.98 6.34 4.96 6 7 C6.66 7.33 7.32 7.66 8 8 C7.01 8 6.02 8 5 8 C3.61328125 6.25 3.61328125 6.25 2.3125 4 C1.87550781 3.2575 1.43851563 2.515 0.98828125 1.75 C0.66214844 1.1725 0.33601562 0.595 0 0 Z " fill="#E35664" transform="translate(537,387)"/>
<path d="M0 0 C0.33 0.99 0.66 1.98 1 3 C-0.8125 6.1875 -0.8125 6.1875 -3 9 C-3.66 9 -4.32 9 -5 9 C-5 9.66 -5 10.32 -5 11 C-5.66 11 -6.32 11 -7 11 C-5.22054913 6.95579349 -2.60470327 3.53921513 0 0 Z " fill="#E16973" transform="translate(907,87)"/>
<path d="M0 0 C-0.33 0.99 -0.66 1.98 -1 3 C-6.94 3.495 -6.94 3.495 -13 4 C-9.4281377 0.4281377 -4.89813766 0 0 0 Z " fill="#E36474" transform="translate(948,62)"/>
<path d="M0 0 C0.66 0 1.32 0 2 0 C2 0.66 2 1.32 2 2 C2.9590625 2.3403125 2.9590625 2.3403125 3.9375 2.6875 C6 4 6 4 6.625 6.5625 C6.74875 7.366875 6.8725 8.17125 7 9 C7.66 9.33 8.32 9.66 9 10 C8.01 10 7.02 10 6 10 C4.39453125 8.06640625 4.39453125 8.06640625 2.8125 5.5625 C2.28269531 4.73878906 1.75289062 3.91507813 1.20703125 3.06640625 C0 1 0 1 0 0 Z " fill="#E1686F" transform="translate(863,834)"/>
<path d="M0 0 C0.33 0.99 0.66 1.98 1 3 C-1.64 5.97 -4.28 8.94 -7 12 C-7.66 11.67 -8.32 11.34 -9 11 C-6.03 7.37 -3.06 3.74 0 0 Z " fill="#535353" transform="translate(1908,672)"/>
<path d="M0 0 C0.33 0.66 0.66 1.32 1 2 C-0.49786883 5.51999175 -1.94585316 8.60979813 -5 11 C-5.66 11 -6.32 11 -7 11 C-5.22054913 6.95579349 -2.60470327 3.53921513 0 0 Z " fill="#E26975" transform="translate(861,150)"/>
<path d="M0 0 C0.33 0.66 0.66 1.32 1 2 C-0.25 5.0625 -0.25 5.0625 -2 8 C-2.99 8.33 -3.98 8.66 -5 9 C-5 9.66 -5 10.32 -5 11 C-5.66 11 -6.32 11 -7 11 C-5.22054913 6.95579349 -2.60470327 3.53921513 0 0 Z " fill="#E26775" transform="translate(880,124)"/>
<path d="M0 0 C-0.33 0.66 -0.66 1.32 -1 2 C-3.72265625 2.4140625 -3.72265625 2.4140625 -7.0625 2.625 C-8.16722656 2.69976562 -9.27195312 2.77453125 -10.41015625 2.8515625 C-11.26480469 2.90054688 -12.11945312 2.94953125 -13 3 C-9.54666565 -0.45333435 -4.63654999 -1.85462 0 0 Z " fill="#E16670" transform="translate(1001,47)"/>
<path d="M0 0 C0.33 0.99 0.66 1.98 1 3 C-0.58133449 6.16266898 -2.38114512 8.63055987 -5 11 C-5.66 10.67 -6.32 10.34 -7 10 C-3.535 5.05 -3.535 5.05 0 0 Z " fill="#E06470" transform="translate(583,532)"/>
<path d="M0 0 C3.68006822 3.38168431 5.9785845 6.42521756 8 11 C7.34 11 6.68 11 6 11 C5.67 10.34 5.34 9.68 5 9 C4.01 8.67 3.02 8.34 2 8 C1.26953125 6.15234375 1.26953125 6.15234375 0.8125 3.9375 C0.65394531 3.20402344 0.49539063 2.47054687 0.33203125 1.71484375 C0.22246094 1.14894531 0.11289062 0.58304688 0 0 Z " fill="#E06770" transform="translate(588,236)"/>
<path d="M0 0 C3.96 0.33 7.92 0.66 12 1 C12 1.66 12 2.32 12 3 C12.66 3.33 13.32 3.66 14 4 C9.13103697 3.40380045 4.67209049 2.43023178 0 1 C0 0.67 0 0.34 0 0 Z " fill="#E16770" transform="translate(1250,1188)"/>
<path d="M0 0 C3.96 0.33 7.92 0.66 12 1 C12.33 1.99 12.66 2.98 13 4 C11.39431334 3.71682074 9.79047953 3.42312209 8.1875 3.125 C7.29417969 2.96257812 6.40085937 2.80015625 5.48046875 2.6328125 C3 2 3 2 0 0 Z " fill="#E16874" transform="translate(1090,1140)"/>
<path d="M0 0 C2.66735273 2.48952921 4.55746343 4.63408134 6 8 C4.68 8 3.36 8 2 8 C2 7.01 2 6.02 2 5 C1.34 5 0.68 5 0 5 C0 3.35 0 1.7 0 0 Z " fill="#E35D66" transform="translate(1213,1094)"/>
<path d="M0 0 C0.33 0 0.66 0 1 0 C1.36923077 4.55384615 1.36923077 4.55384615 -0.5 6.8125 C-0.995 7.204375 -1.49 7.59625 -2 8 C-2.99 7.67 -3.98 7.34 -5 7 C-4.19152271 5.83054208 -3.37810888 4.66449539 -2.5625 3.5 C-2.11003906 2.8503125 -1.65757812 2.200625 -1.19140625 1.53125 C-0.79824219 1.0259375 -0.40507812 0.520625 0 0 Z " fill="#E15160" transform="translate(326,885)"/>
<path d="M0 0 C0.99 0.66 1.98 1.32 3 2 C1.35 4.31 -0.3 6.62 -2 9 C-2.33 7.68 -2.66 6.36 -3 5 C-2.34 5 -1.68 5 -1 5 C-0.67 3.35 -0.34 1.7 0 0 Z " fill="#E25864" transform="translate(510,853)"/>
<path d="M0 0 C2.96404505 2.80804268 5.44499019 5.18315774 7 9 C6.01 9 5.02 9 4 9 C0 5 0 5 -0.125 2.375 C-0.08375 1.59125 -0.0425 0.8075 0 0 Z " fill="#E2626C" transform="translate(1032,845)"/>
<path d="M0 0 C0.33 1.32 0.66 2.64 1 4 C0.01 4.495 0.01 4.495 -1 5 C-0.67 3.35 -0.34 1.7 0 0 Z M-5 5 C-3.68 5.33 -2.36 5.66 -1 6 C-2.3125 7.5 -2.3125 7.5 -4 9 C-4.99 9 -5.98 9 -7 9 C-6.34 7.68 -5.68 6.36 -5 5 Z " fill="#E24350" transform="translate(374,821)"/>
<path d="M0 0 C2.60608273 2.5162178 4.89381685 5.05134359 7 8 C6.67 8.66 6.34 9.32 6 10 C5.01 9.67 4.02 9.34 3 9 C3 7.68 3 6.36 3 5 C2.01 4.67 1.02 4.34 0 4 C0 2.68 0 1.36 0 0 Z " fill="#E16370" transform="translate(782,501)"/>
<path d="M0 0 C0.66 1.32 1.32 2.64 2 4 C0.35 5.98 -1.3 7.96 -3 10 C-3.66 9.67 -4.32 9.34 -5 9 C-3.35 6.03 -1.7 3.06 0 0 Z " fill="#525252" transform="translate(301,457)"/>
<path d="M0 0 C0.66 0 1.32 0 2 0 C2 0.66 2 1.32 2 2 C3.65 2 5.3 2 7 2 C7 3.65 7 5.3 7 7 C6.01 7 5.02 7 4 7 C2.02 3.535 2.02 3.535 0 0 Z " fill="#E15864" transform="translate(1053,1095)"/>
<path d="M0 0 C2.97 0 5.94 0 9 0 C9 0.66 9 1.32 9 2 C9.99 2.33 10.98 2.66 12 3 C9.18185434 4.40907283 7.82722796 3.50872691 4.875 2.5625 C3.96492188 2.27503906 3.05484375 1.98757813 2.1171875 1.69140625 C1.41851562 1.46324219 0.71984375 1.23507812 0 1 C0 0.67 0 0.34 0 0 Z " fill="#E36672" transform="translate(390,929)"/>
<path d="M0 0 C2.40072955 2.88087546 4.47291037 5.56404834 6 9 C4.125 8.75 4.125 8.75 2 8 C-0.02755186 5.06004981 0 3.72295997 0 0 Z " fill="#E16872" transform="translate(1015,821)"/>
<path d="M0 0 C1.65 1.65 3.3 3.3 5 5 C4.67 5.99 4.34 6.98 4 8 C3.34 8 2.68 8 2 8 C2 7.01 2 6.02 2 5 C1.34 5 0.68 5 0 5 C0 3.35 0 1.7 0 0 Z " fill="#E55C68" transform="translate(1072,900)"/>
<path d="M0 0 C0.99 0 1.98 0 3 0 C4.32 2.31 5.64 4.62 7 7 C6.01 7 5.02 7 4 7 C0 2.65714286 0 2.65714286 0 0 Z " fill="#E15E6A" transform="translate(826,783)"/>
<path d="M0 0 C0.66 0 1.32 0 2 0 C1.5206753 4.31392226 0.2542015 6.16569547 -3 9 C-3 7.35 -3 5.7 -3 4 C-2.01 4 -1.02 4 0 4 C0 2.68 0 1.36 0 0 Z " fill="#E05763" transform="translate(596,735)"/>
<path d="M0 0 C0.66 0 1.32 0 2 0 C2 0.66 2 1.32 2 2 C4.475 2.99 4.475 2.99 7 4 C6.67 5.32 6.34 6.64 6 8 C1.125 3.375 1.125 3.375 0 0 Z " fill="#E35864" transform="translate(503,340)"/>
<path d="M0 0 C0.99 0 1.98 0 3 0 C1.47291037 3.43595166 -0.59927045 6.11912454 -3 9 C-3 7.68 -3 6.36 -3 5 C-2.34 5 -1.68 5 -1 5 C-0.67 3.35 -0.34 1.7 0 0 Z " fill="#DF5F6B" transform="translate(908,307)"/>
<path d="M0 0 C-2 2 -2 2 -4.625 2.125 C-5.40875 2.08375 -6.1925 2.0425 -7 2 C-7.33 2.66 -7.66 3.32 -8 4 C-8.33 3.01 -8.66 2.02 -9 1 C-5.57367167 -0.61798838 -3.61944899 -1.34053666 0 0 Z " fill="#DE646C" transform="translate(432,229)"/>
<path d="M0 0 C1.98 0.495 1.98 0.495 4 1 C2.70700306 3.88437779 1.34058637 5.87219421 -1 8 C-1 6.68 -1 5.36 -1 4 C-0.34 4 0.32 4 1 4 C0.67 2.68 0.34 1.36 0 0 Z " fill="#E35B63" transform="translate(996,184)"/>
<path d="M0 0 C0.33 0.66 0.66 1.32 1 2 C-0.3125 4.625 -0.3125 4.625 -2 7 C-2.66 7 -3.32 7 -4 7 C-4 7.66 -4 8.32 -4 9 C-4.66 8.67 -5.32 8.34 -6 8 C-4.02 5.36 -2.04 2.72 0 0 Z " fill="#E1636F" transform="translate(895,104)"/>
<path d="M0 0 C0.66 0 1.32 0 2 0 C1.52797514 4.24822374 -0.96655518 6.19989709 -4 9 C-4 7.68 -4 6.36 -4 5 C-3.34 5 -2.68 5 -2 5 C-2 4.34 -2 3.68 -2 3 C-1.34 3 -0.68 3 0 3 C0 2.01 0 1.02 0 0 Z " fill="#DD6169" transform="translate(1065,92)"/>
<path d="M0 0 C-2.64 0.66 -5.28 1.32 -8 2 C-8 2.66 -8 3.32 -8 4 C-10.97 3.505 -10.97 3.505 -14 3 C-9.12891276 0.37710687 -5.5029075 -1.37572688 0 0 Z " fill="#E46974" transform="translate(1074,25)"/>
<path d="M0 0 C1.875 0.625 1.875 0.625 4 2 C5.25 5.125 5.25 5.125 6 8 C1.125 3.375 1.125 3.375 0 0 Z " fill="#E0686F" transform="translate(1062,1107)"/>
<path d="M0 0 C2.97 0.495 2.97 0.495 6 1 C6 3 6 5 6 7 C1.125 2.25 1.125 2.25 0 0 Z " fill="#E25E68" transform="translate(990,1009)"/>
<path d="M0 0 C3.82946843 1.45255699 5.12050295 3.42895561 7 7 C6.01 7 5.02 7 4 7 C0 2.65714286 0 2.65714286 0 0 Z " fill="#E36371" transform="translate(976,989)"/>
<path d="M0 0 C0.99 0 1.98 0 3 0 C2.43628586 3.26954202 1.50037734 4.82575883 -1 7 C-1.04254356 5.00045254 -1.04080783 2.99958364 -1 1 C-0.67 0.67 -0.34 0.34 0 0 Z " fill="#DF545C" transform="translate(469,909)"/>
<path d="M0 0 C1.70884005 1.62339805 3.37446717 3.29319053 5 5 C5 5.66 5 6.32 5 7 C3.68 7.33 2.36 7.66 1 8 C-0.35439668 5.29120665 -0.06501451 2.99066732 0 0 Z " fill="#E45F6D" transform="translate(1040,856)"/>
<path d="M0 0 C-2.31 0.66 -4.62 1.32 -7 2 C-7 2.66 -7 3.32 -7 4 C-9.97 3.505 -9.97 3.505 -13 3 C-4.58823529 -1.52941176 -4.58823529 -1.52941176 0 0 Z " fill="#E37682" transform="translate(555,191)"/>
<path d="M0 0 C0.33 0.99 0.66 1.98 1 3 C0.67 3.66 0.34 4.32 0 5 C-0.66 5 -1.32 5 -2 5 C-2 5.99 -2 6.98 -2 8 C-2.99 8 -3.98 8 -5 8 C-3.62845496 5.04590299 -2.01136276 2.55991624 0 0 Z " fill="#E26C76" transform="translate(913,79)"/>
<path d="M0 0 C0.33 0 0.66 0 1 0 C1.125 2.375 1.125 2.375 1 5 C0.34 5.66 -0.32 6.32 -1 7 C-1.99 7 -2.98 7 -4 7 C-2.79618552 4.50638429 -1.54571278 2.31856917 0 0 Z " fill="#E25B65" transform="translate(918,72)"/>
<path d="M0 0 C-0.33 0.66 -0.66 1.32 -1 2 C-3.64860427 2.59355614 -6.29197322 2.74209269 -9 3 C-6.27596221 -1.08605669 -4.4643819 -1.38549783 0 0 Z " fill="#E15F68" transform="translate(928,69)"/>
<path d="M0 0 C0.66 0 1.32 0 2 0 C2 0.66 2 1.32 2 2 C3.32 2.66 4.64 3.32 6 4 C5.67 5.32 5.34 6.64 5 8 C4.16382818 6.8562364 3.33113541 5.70992861 2.5 4.5625 C2.0359375 3.92441406 1.571875 3.28632812 1.09375 2.62890625 C0 1 0 1 0 0 Z " fill="#DF5D66" transform="translate(799,746)"/>
<path d="M0 0 C0.66 1.32 1.32 2.64 2 4 C0.625 5.5 0.625 5.5 -1 7 C-1.66 7 -2.32 7 -3 7 C-2.38722388 4.03824877 -1.74627478 2.61941217 0 0 Z " fill="#E65762" transform="translate(697,374)"/>
<path d="M0 0 C1.9375 0.8125 1.9375 0.8125 4 2 C4.33 2.99 4.66 3.98 5 5 C5.66 5.66 6.32 6.32 7 7 C6.01 7 5.02 7 4 7 C0 2.65714286 0 2.65714286 0 0 Z " fill="#E16573" transform="translate(482,311)"/>
<path d="M0 0 C1.32 0.66 2.64 1.32 4 2 C3.34 2 2.68 2 2 2 C1.67 2.99 1.34 3.98 1 5 C-0.32 4.67 -1.64 4.34 -3 4 C-2.01 2.68 -1.02 1.36 0 0 Z " fill="#E24955" transform="translate(772,272)"/>
<path d="M0 0 C-0.33 0.99 -0.66 1.98 -1 3 C-3.31 3 -5.62 3 -8 3 C-6.23110084 -0.53779831 -3.70375662 0 0 0 Z " fill="#DC4F5C" transform="translate(988,50)"/>
<path d="M0 0 C1.65 1.65 3.3 3.3 5 5 C4.67 5.66 4.34 6.32 4 7 C2.68 6.34 1.36 5.68 0 5 C0 3.35 0 1.7 0 0 Z " fill="#DF5B68" transform="translate(1170,1035)"/>
<path d="M0 0 C1.9375 0.6875 1.9375 0.6875 4 2 C4.75 4.625 4.75 4.625 5 7 C3.29115995 5.37660195 1.62553283 3.70680947 0 2 C0 1.34 0 0.68 0 0 Z " fill="#E16170" transform="translate(982,997)"/>
<path d="M0 0 C2.97 0 5.94 0 9 0 C9 0.99 9 1.98 9 3 C4.545 2.01 4.545 2.01 0 1 C0 0.67 0 0.34 0 0 Z " fill="#E26072" transform="translate(403,933)"/>
<path d="M0 0 C0.99 0 1.98 0 3 0 C3 0.99 3 1.98 3 3 C3.99 3.33 4.98 3.66 6 4 C5.67 5.32 5.34 6.64 5 8 C4.16382818 6.8562364 3.33113541 5.70992861 2.5 4.5625 C2.0359375 3.92441406 1.571875 3.28632812 1.09375 2.62890625 C0 1 0 1 0 0 Z " fill="#E26B77" transform="translate(916,907)"/>
<path d="M0 0 C0.99 0 1.98 0 3 0 C2.43628586 3.26954202 1.50037734 4.82575883 -1 7 C-0.67 4.69 -0.34 2.38 0 0 Z " fill="#DE5560" transform="translate(490,880)"/>
<path d="M0 0 C1.32 0 2.64 0 4 0 C4 1.65 4 3.3 4 5 C4.66 5.33 5.32 5.66 6 6 C5.01 6 4.02 6 3 6 C2.01 4.02 1.02 2.04 0 0 Z " fill="#E16167" transform="translate(871,845)"/>
<path d="M0 0 C0.99 0 1.98 0 3 0 C3.99 1.98 4.98 3.96 6 6 C5.01 6 4.02 6 3 6 C0 2.66666667 0 2.66666667 0 0 Z " fill="#E0636E" transform="translate(858,827)"/>
<path d="M0 0 C2.5 2.3125 2.5 2.3125 5 5 C5 5.99 5 6.98 5 8 C3.0625 7.375 3.0625 7.375 1 6 C0.25 2.875 0.25 2.875 0 0 Z " fill="#E0636E" transform="translate(1008,812)"/>
<path d="M0 0 C2.52588702 2.36292656 3.88820837 3.66462511 5 7 C3.68 6.67 2.36 6.34 1 6 C0.67 4.02 0.34 2.04 0 0 Z " fill="#DF5B67" transform="translate(875,629)"/>
<path d="M0 0 C1.70884005 1.62339805 3.37446717 3.29319053 5 5 C5 5.66 5 6.32 5 7 C4.01 7.33 3.02 7.66 2 8 C0.23537317 4.91190305 0 3.76687864 0 0 Z " fill="#E26170" transform="translate(859,607)"/>
<path d="M0 0 C0.625 1.8125 0.625 1.8125 1 4 C0.01 5.485 0.01 5.485 -1 7 C-1.99 6.67 -2.98 6.34 -4 6 C-2.68 4.02 -1.36 2.04 0 0 Z " fill="#DF5261" transform="translate(535,598)"/>
<path d="M0 0 C0.33 0 0.66 0 1 0 C1 1.65 1 3.3 1 5 C-0.65 5.66 -2.3 6.32 -4 7 C-2.68 4.69 -1.36 2.38 0 0 Z " fill="#E05969" transform="translate(599,510)"/>
<path d="M0 0 C1.65 0 3.3 0 5 0 C3.69593116 2.01920337 2.36176581 4.01924973 1 6 C0.67 6 0.34 6 0 6 C0 4.02 0 2.04 0 0 Z " fill="#E25765" transform="translate(949,249)"/>
</svg>
